<svg width="51" height="51" viewBox="0 0 51 51" fill="none" xmlns="http://www.w3.org/2000/svg">
<g id="User / User_Square">
<path id="Vector" d="M35.6998 44.0998C35.6998 38.3008 30.9988 33.5998 25.1998 33.5998C19.4008 33.5998 14.6998 38.3008 14.6998 44.0998M35.6998 44.0998H37.3863C39.7339 44.0998 40.9078 44.0998 41.8053 43.6425C42.5956 43.2398 43.2398 42.5956 43.6425 41.8053C44.0998 40.9078 44.0998 39.7339 44.0998 37.3863V13.0133C44.0998 10.6657 44.0998 9.49013 43.6425 8.59258C43.2398 7.8023 42.5956 7.16025 41.8053 6.75758C40.9069 6.2998 39.7324 6.2998 37.3802 6.2998H13.0202C10.668 6.2998 9.49101 6.2998 8.59258 6.75758C7.8023 7.16025 7.16025 7.8023 6.75758 8.59258C6.2998 9.49101 6.2998 10.668 6.2998 13.0202V37.3802C6.2998 39.7324 6.2998 40.9069 6.75758 41.8053C7.16025 42.5956 7.8023 43.2398 8.59258 43.6425C9.49013 44.0998 10.6657 44.0998 13.0133 44.0998H14.6998M35.6998 44.0998H14.6998M25.1998 27.2998C21.7204 27.2998 18.8998 24.4792 18.8998 20.9998C18.8998 17.5204 21.7204 14.6998 25.1998 14.6998C28.6792 14.6998 31.4998 17.5204 31.4998 20.9998C31.4998 24.4792 28.6792 27.2998 25.1998 27.2998Z" stroke="black" stroke-width="1.6" stroke-linecap="round" stroke-linejoin="round"/>
</g>
</svg>
